<svg width="102" height="102" viewBox="0 0 102 102" fill="none" xmlns="http://www.w3.org/2000/svg">
<path d="M95.7955 27.285C95.2906 25.268 94.2624 23.4199 92.8148 21.9275C91.3671 20.435 89.5512 19.351 87.5505 18.785C80.2405 17 51.0005 17 51.0005 17C51.0005 17 21.7605 17 14.4505 18.955C12.4498 19.521 10.6339 20.605 9.1862 22.0975C7.73852 23.5899 6.71033 25.438 6.20548 27.455C4.86764 34.8736 4.21323 42.3993 4.25048 49.9375C4.20279 57.5324 4.85724 65.1155 6.20548 72.59C6.76205 74.5444 7.81328 76.3221 9.25759 77.7515C10.7019 79.181 12.4905 80.2137 14.4505 80.75C21.7605 82.705 51.0005 82.705 51.0005 82.705C51.0005 82.705 80.2405 82.705 87.5505 80.75C89.5512 80.184 91.3671 79.1 92.8148 77.6075C94.2624 76.1151 95.2906 74.267 95.7955 72.25C97.123 64.8873 97.7774 57.4189 97.7505 49.9375C97.7982 42.3426 97.1437 34.7595 95.7955 27.285V27.285Z" stroke="#29703B" stroke-width="5" stroke-linecap="round" stroke-linejoin="round"/>
<path d="M41.4375 63.835L65.875 49.9375L41.4375 36.04V63.835Z" stroke="#29703B" stroke-width="5" stroke-linecap="round" stroke-linejoin="round"/>
</svg>
