<svg id="Layer_1" data-name="Layer 1" xmlns="http://www.w3.org/2000/svg" viewBox="0 0 615.26 164.64"><defs><style>.cls-1{fill:#FFFFFF;}.cls-2{fill:#FFFFFF;}.cls-3{fill:#FFFFFF;}</style></defs><path class="cls-1" d="M130.08,135c-8.1,5.19-18.05,9.44-27.93,10.5,6.16-26,9-69.34-15.36-120.37A.93.93,0,0,0,85,25.5c-.41,5.93-2.19,17.81-9.56,26.52a.92.92,0,0,1-1.06.24c-20.68-8.75-49.24-7.5-66.77-5.53a.92.92,0,0,0,.07,1.83c46.57,2.1,82.64,36.25,88.94,82.55,1.31,9.63-.31,26.38-.71,30.7a.92.92,0,0,0,.94,1,89.54,89.54,0,0,0,29-6.17.88.88,0,0,0,.52-.56,181.25,181.25,0,0,0,5.06-20.1A.92.92,0,0,0,130.08,135Z"/><path class="cls-2" d="M58,40.63A16.77,16.77,0,1,0,39.11,26.27,16.78,16.78,0,0,0,58,40.63Z"/><path class="cls-3" d="M37.1,108.69l13.1-6.64a3,3,0,0,0,1.31-4l-4-7.86a3,3,0,0,0-4-1.31l-11,5.56a64.12,64.12,0,0,1,.81-27.73,3,3,0,0,0-1.92-3.54c-1.67-.58-3.35-1.11-5.06-1.57l-.25-.08-.46-.11c-1.73-.44-3.47-.84-5.24-1.18a3,3,0,0,0-3.48,2.23,80.93,80.93,0,0,0,0,39.88l-4.37,2.21a3,3,0,0,0-1.31,4l4,7.85a3,3,0,0,0,4,1.32L22,116.36a80.43,80.43,0,0,0,60.19,45.47,3,3,0,0,0,3.46-2.45,83.56,83.56,0,0,0,1.25-11.27A3,3,0,0,0,84.43,145,63.51,63.51,0,0,1,37.1,108.69Z"/><path class="cls-3" d="M95,1.82c-1.38,0-3.57.11-5.64.23a1.8,1.8,0,0,0-1.5,2.59l6.32,12.68c12.25,24.62,19.54,49.94,21.67,75.24a180.51,180.51,0,0,1-.5,36,1.79,1.79,0,0,0,2.55,1.83,65.79,65.79,0,0,0,8.32-4.83l5.58-3.8a1.82,1.82,0,0,0,.78-1.33c2.62-30.36-4.8-67-18-97.32L114,21.64a63.61,63.61,0,0,1,44.62,60.7c0,14.7-5,28.47-14.38,40.61a1.58,1.58,0,0,0-.34.77l-2.07,11.86c-.6,3.48-1.31,6.82-2,9.9a1.79,1.79,0,0,0,2.79,1.86c20.6-15.39,33-38.52,33-65A80.52,80.52,0,0,0,95,1.82Z"/><path class="cls-1" d="M244.32,117.28H220V67.19a1.59,1.59,0,0,0-1.59-1.58h-8.27a1.59,1.59,0,0,0-1.59,1.58V125.6a1.59,1.59,0,0,0,1.59,1.58h34.19a1.59,1.59,0,0,0,1.59-1.58v-6.73A1.59,1.59,0,0,0,244.32,117.28Z"/><path class="cls-1" d="M270.24,82.32a52.48,52.48,0,0,0-15.13,2.45A1.57,1.57,0,0,0,254,86.26v6.61a1.57,1.57,0,0,0,2,1.5,37.39,37.39,0,0,1,11.52-2.06c6.77.15,10.09,2.91,10.14,8.9a56.84,56.84,0,0,0-10.48-1.15c-10.69,0-17.32,5.49-17.32,14.33,0,8.18,5.75,13.9,14,13.9a16.14,16.14,0,0,0,13.81-7.54v4.87a1.56,1.56,0,0,0,1.56,1.56h8a1.57,1.57,0,0,0,1.57-1.56V100.74C288.84,89.21,281.88,82.32,270.24,82.32Zm7.5,27.38a10.08,10.08,0,0,1-10,10.39c-4.13,0-6.9-2.53-6.9-6.3,0-4.43,4-7.07,10.65-7.07a29.45,29.45,0,0,1,6.22.65Z"/><path class="cls-1" d="M313.37,100.51c-7.16-1.86-8.08-3.68-8.08-5.05,0-2.4,2.71-3.85,7.24-3.83A36,36,0,0,1,325,94.2a1.57,1.57,0,0,0,2.14-1.47V86a1.56,1.56,0,0,0-1.05-1.48,46,46,0,0,0-14.39-2.46c-10.94,0-17.74,5-17.74,13,0,6.86,4.57,11,15.29,13.71,6.47,1.66,9.35,3.45,9.35,5.82,0,2.57-3,4.33-7.75,4.17a42.21,42.21,0,0,1-14.12-3.14,1.57,1.57,0,0,0-2.18,1.45v7.08a1.56,1.56,0,0,0,1,1.46,43.9,43.9,0,0,0,15.38,2.71c11.91,0,19-5,19-13.39C329.94,107.51,325.13,103.34,313.37,100.51Z"/><path class="cls-1" d="M355,65.61h-17.6a1.59,1.59,0,0,0-1.59,1.59v58a1.91,1.91,0,0,0,1.91,1.91H355c19.84,0,31.22-11.16,31.22-30.62C386.17,76.86,374.79,65.61,355,65.61ZM354,117.19H347.2V75.51H354c13,0,20.2,7.42,20.2,20.89S367,117.19,354,117.19Z"/><path class="cls-1" d="M411.69,82.06c-12.85,0-21.15,8.91-21.15,22.69,0,14.3,9.77,23.54,24.9,23.54a35.39,35.39,0,0,0,10.61-1.67,1.59,1.59,0,0,0,1.08-1.51v-6.5a1.59,1.59,0,0,0-2.1-1.52,27.32,27.32,0,0,1-8.9,1.55c-7.06,0-12.24-3.62-13.63-9.35a.36.36,0,0,1,.35-.44h27.64a1.58,1.58,0,0,0,1.57-1.37,37.56,37.56,0,0,0,.36-4.69C432.42,90.39,424.09,82.06,411.69,82.06Zm10.21,19.7H402.24a.37.37,0,0,1-.36-.39c.58-6.09,4.56-10.08,10.24-10.08s9.52,3.91,10.14,10.07A.37.37,0,0,1,421.9,101.76Z"/><rect class="cls-1" x="438.16" y="64.76" width="11.19" height="62.43" rx="1.59"/><path class="cls-1" d="M507.9,83.6A51.26,51.26,0,0,0,497,82.06c-14.35,0-23.63,9.08-23.63,23.12s9.21,23.11,23.46,23.11A40.88,40.88,0,0,0,508,126.77a1.57,1.57,0,0,0,1.13-1.52v-6.51a1.58,1.58,0,0,0-2.07-1.5,27.26,27.26,0,0,1-8,1.32c-8.67.12-14.49-5.38-14.49-13.38S490.35,91.87,499,91.8a27.74,27.74,0,0,1,8.1,1.38,1.58,1.58,0,0,0,2.05-1.5V85.13A1.56,1.56,0,0,0,507.9,83.6Z"/><path class="cls-1" d="M551.57,82.32a53.55,53.55,0,0,0-15.11,2.45,1.58,1.58,0,0,0-1.1,1.51v6.58a1.58,1.58,0,0,0,2.06,1.51,40,40,0,0,1,11.51-2.06c6.77,0,10.09,2.91,10.13,8.9a56.75,56.75,0,0,0-10.48-1.15c-10.68,0-17.31,5.49-17.31,14.33,0,8.18,5.75,13.9,14,13.9a16.11,16.11,0,0,0,13.8-7.54v4.85a1.58,1.58,0,0,0,1.59,1.58h7.93a1.58,1.58,0,0,0,1.59-1.58V100.74C570.17,89.21,563.21,82.32,551.57,82.32Zm7.49,27.38a10.07,10.07,0,0,1-10,10.39c-4.13,0-6.9-2.53-6.9-6.3,0-4.43,4-7.07,10.65-7.07a29.35,29.35,0,0,1,6.21.65Z"/><path class="cls-1" d="M594.7,100.51c-7.16-1.86-8.08-3.68-8.08-5.05,0-2.4,2.71-3.84,7.24-3.83a36,36,0,0,1,12.44,2.55,1.57,1.57,0,0,0,2.15-1.46V86a1.58,1.58,0,0,0-1.05-1.49A45.82,45.82,0,0,0,593,82.06c-10.94,0-17.74,5-17.74,13,0,6.86,4.57,11,15.29,13.71,6.46,1.66,9.35,3.45,9.35,5.82,0,2.57-3.08,4.17-7.75,4.17a38.5,38.5,0,0,1-14.11-3.13,1.58,1.58,0,0,0-2.19,1.45v7.08a1.57,1.57,0,0,0,1,1.46,43.72,43.72,0,0,0,15.39,2.7c11.91.11,19-5,19-13.39C611.26,107.51,606.46,103.34,594.7,100.51Z"/><rect class="cls-1" x="515.53" y="83.17" width="11.1" height="44.01" rx="1.59"/><path class="cls-1" d="M520.1,64.64a6.49,6.49,0,1,0,7.31,5.56A6.5,6.5,0,0,0,520.1,64.64Z"/><rect class="cls-1" x="456.77" y="83.17" width="11.1" height="44.01" rx="1.58"/><path class="cls-1" d="M461.33,64.64a6.49,6.49,0,1,0,7.31,5.56A6.51,6.51,0,0,0,461.33,64.64Z"/><path class="cls-3" d="M208.54,33.2h12.89v3.46h-9v6.57h8.43V46.6h-8.43v8.24h-3.88Z"/><path class="cls-3" d="M224.16,48.91V39.2h3.65v9.1c0,1,0,3.88,2.95,3.88,2.37,0,3.85-2,3.85-4.46V39.2h3.65V54.84h-3.52l-.13-2.73a5.45,5.45,0,0,1-5.19,3C224.16,55.16,224.16,50.51,224.16,48.91Z"/><path class="cls-3" d="M242.15,39.2h3.52L245.8,42a5.61,5.61,0,0,1,5.35-3.11c5.26,0,5.26,4.68,5.26,6.29v9.68h-3.66v-9c0-1.09,0-4-2.94-4-2.5,0-4,2-4,4.46v8.53h-3.65Z"/><path class="cls-3" d="M259.43,47.05c0-5.13,2.63-8.3,6.73-8.3a6,6,0,0,1,5.45,3V32.4h3.65V54.84h-3.4l-.13-2.79a6,6,0,0,1-5.57,3.23C262.06,55.28,259.43,52.14,259.43,47.05Zm7.91,5.19c2.7,0,4.33-2,4.33-5.19s-1.63-5.26-4.33-5.26-4.16,2-4.16,5.26S264.75,52.24,267.34,52.24Z"/><path class="cls-3" d="M278.44,50.57c0-4.16,3.62-5.8,10.74-5.12V45c0-2.12-1.28-3.3-3.88-3.3A13.1,13.1,0,0,0,280.11,43v-3A14.62,14.62,0,0,1,286,38.81c6.76,0,6.76,4.45,6.76,6.15v9.88h-3.26l-.13-2.41a6.91,6.91,0,0,1-5.71,2.69C280.75,55.12,278.44,53.75,278.44,50.57Zm6.6,2c1.8,0,4.14-.9,4.14-4v-.67c-4.46-.35-7,.16-7,2.43C282.22,51.82,283.47,52.53,285,52.53Z"/><path class="cls-3" d="M295.88,47.14c0-5.09,3.05-8.3,8.11-8.3a9.9,9.9,0,0,1,3.56.64v3.3a8.5,8.5,0,0,0-3.21-.73c-2.85,0-4.71,1.79-4.71,5s1.7,5,4.75,5a7.72,7.72,0,0,0,3.23-.76v3.26a8.91,8.91,0,0,1-3.59.68C298.7,55.19,295.88,52.05,295.88,47.14Z"/><path class="cls-3" d="M311.08,33h3.84v3.37h-3.84Zm.09,6.16h3.66V54.84h-3.66Z"/><path class="cls-3" d="M318,47.05c0-5.13,3.14-8.3,8.11-8.3s8.08,3.17,8.08,8.3-3.14,8.23-8.08,8.23S318,52.14,318,47.05Zm8.11,5.16c2.69,0,4.33-1.93,4.33-5.16s-1.64-5.23-4.33-5.23-4.36,1.93-4.36,5.23S323.36,52.21,326.08,52.21Zm1.28-20.74h3.94l-4.16,5.1h-3.27Z"/><path class="cls-3" d="M337.21,39.2h3.52l.13,2.78a5.61,5.61,0,0,1,5.35-3.11c5.26,0,5.26,4.68,5.26,6.29v9.68h-3.65v-9c0-1.09,0-4-2.95-4-2.5,0-4,2-4,4.46v8.53h-3.65Z"/></svg>