<svg width="24" height="24" viewBox="0 0 24 24" fill="none" xmlns="http://www.w3.org/2000/svg">
<path fill-rule="evenodd" clip-rule="evenodd" d="M10.8507 2.05968C6.22715 2.62754 2.5934 6.31328 2.11491 10.9205C2.044 11.6033 2.08695 12.8962 2.20227 13.5487C2.3848 14.582 2.68684 15.4911 3.15631 16.42L3.39219 16.8869L2.68932 19.4384C2.30273 20.8417 1.99262 21.9944 2.00013 21.9999C2.00769 22.0054 3.18511 21.7024 4.61663 21.3266C6.7006 20.7794 7.2403 20.6511 7.32434 20.6829C7.38207 20.7048 7.65599 20.8249 7.93306 20.9497C8.83294 21.3553 9.77796 21.6242 10.7723 21.7579C11.4634 21.8508 12.6763 21.8502 13.3485 21.7567C15.555 21.4498 17.5264 20.48 19.0802 18.9373C19.8927 18.1306 20.433 17.3927 20.9473 16.3873C21.4106 15.4819 21.7374 14.4949 21.92 13.4498C22.0268 12.8389 22.0266 11.044 21.9198 10.4039C21.7392 9.32245 21.4606 8.45843 20.9844 7.50408C19.6294 4.78822 17.1272 2.85223 14.1354 2.20492C13.2027 2.00314 11.8118 1.94164 10.8507 2.05968ZM13.4744 3.78655C14.6787 4.0079 15.6773 4.40774 16.6649 5.06402C18.3511 6.18447 19.5923 7.92437 20.0829 9.85519C20.4433 11.2731 20.4149 12.8836 20.0057 14.2471C19.344 16.4516 17.7671 18.3073 15.7034 19.3096C14.5036 19.8924 13.3934 20.1465 12.0471 20.1465C10.504 20.1465 9.13608 19.7743 7.73999 18.9746L7.5049 18.84L5.95991 19.2435C5.11015 19.4654 4.40845 19.6405 4.40056 19.6327C4.39266 19.6249 4.56701 18.964 4.78799 18.1641C5.00893 17.3642 5.19134 16.6804 5.19331 16.6444C5.19528 16.6085 5.08664 16.4007 4.95188 16.1827C2.97202 12.9801 3.49093 8.75655 6.19243 6.08546C7.53626 4.75676 9.23755 3.94022 11.1445 3.70865C11.6596 3.64611 12.9439 3.68904 13.4744 3.78655ZM8.12814 7.42714C7.88537 7.5466 7.44176 8.06731 7.25629 8.45055C6.89199 9.20333 6.89942 10.1523 7.27649 11.0309C7.73986 12.1107 8.95225 13.6438 10.1491 14.6634C10.988 15.378 11.689 15.7968 12.7188 16.1985C13.7708 16.6088 13.9726 16.6561 14.6709 16.6558C15.2201 16.6556 15.3072 16.6452 15.5626 16.5496C15.9825 16.3924 16.2959 16.1943 16.6081 15.8889C16.8503 15.6518 16.8991 15.5777 16.9784 15.3256C17.0773 15.0113 17.1338 14.5055 17.0896 14.3303C17.0665 14.2388 16.9479 14.1645 16.3515 13.8677C15.2587 13.3239 14.8183 13.1368 14.6311 13.1368C14.4777 13.1368 14.4516 13.1555 14.2661 13.3976C13.8423 13.951 13.4533 14.3795 13.352 14.4048C13.2306 14.4351 12.9921 14.3483 12.4413 14.0733C11.5495 13.6282 10.8219 13.0329 10.1963 12.2366C9.85587 11.8033 9.54929 11.3094 9.54929 11.1944C9.54929 11.1451 9.70713 10.9002 9.90008 10.6501C10.2782 10.1599 10.3889 9.97694 10.3889 9.84229C10.3889 9.79506 10.3069 9.56412 10.2067 9.32913C10.1065 9.0941 9.9044 8.61081 9.7576 8.25511C9.57561 7.81426 9.44787 7.56521 9.35626 7.47279L9.22184 7.33718L8.76636 7.33723C8.38455 7.33723 8.28132 7.35179 8.12814 7.42714Z" fill="white"/>
</svg>
